<svg t="1563357585976" class="icon" viewBox="0 0 1024 1024" version="1.1" 
    xmlns="http://www.w3.org/2000/svg" p-id="8338" width="20" height="20">
    <path d="M332.245 953.77H73.387c-40.15 0-72.832-33.535-72.832-74.751V75.435C0.555 34.133 33.28 0.64 73.387 0.64h758.485c40.192 0 72.79 33.579 72.79 74.795v273.45c0 34.56-35.414 31.36-35.414 31.36s-37.376 2.048-37.376-33.664V112.128c0-41.387-47.36-36.907-47.36-36.907l-671.36-2.005s-39.723-4.181-39.723 40.021v732.886c0 20.906 10.454 32.938 27.264 33.109 60.928 0.555 205.227 1.75 233.771 1.75 36.395 0 36.907 35.413 36.907 35.413s5.205 37.376-39.168 37.376z" p-id="8339"></path>
    <path d="M178.219 213.035c0-19.926 16.384-36.267 36.437-36.267h439.51c20.053 0 36.437 16.341 36.437 36.267 0 19.925-16.384 36.266-36.438 36.266H214.656a36.48 36.48 0 0 1-36.437-36.266z m0 176.085c0-19.883 16.384-36.224 36.437-36.224H554.88c20.053 0 36.437 16.341 36.437 36.267 0 19.925-16.384 36.266-36.437 36.266H214.656a36.48 36.48 0 0 1-36.437-36.266z m0 176.17c0-19.925 16.384-36.266 36.437-36.266h204.416c20.053 0 36.437 16.341 36.437 36.267 0 19.925-16.384 36.266-36.437 36.266H214.656a36.48 36.48 0 0 1-36.437-36.266z m0 176.129c0-19.926 16.384-36.267 36.437-36.267h204.416c20.053 0 36.437 16.341 36.437 36.267 0 19.925-16.384 36.266-36.437 36.266H214.656a36.48 36.48 0 0 1-36.437-36.266z m843.05 174.293L911.104 711.125c11.392-25.472 17.92-53.546 18.09-83.2 0.427-114.346-92.33-207.402-207.274-207.786-114.816-0.555-208.427 91.861-208.768 206.208a205.227 205.227 0 0 0 18.304 84.992L419.243 913.28a18.773 18.773 0 0 0 20.693 27.477l95.061-21.418 32.214 90.282c2.517 6.998 8.917 11.819 16.256 12.544h1.493a18.901 18.901 0 0 0 16.725-9.813l98.048-180.267c6.87 0.726 13.568 2.134 20.608 2.219 6.486 0 12.587-1.28 18.944-1.963l98.774 180.907a18.603 18.603 0 0 0 16.597 9.899c0.427 0.085 0.896 0 1.493-0.043a19.2 19.2 0 0 0 16.427-12.245l32.768-90.027 94.805 21.93a18.603 18.603 0 0 0 19.286-6.826 18.39 18.39 0 0 0 1.834-20.224z m-437.12-25.003l-11.776-33.194a9.472 9.472 0 0 0-11.136-6.059l-35.328 7.85 50.006-89.343c18.346 18.474 33.322 26.538 53.845 37.802l-45.61 82.944z m136.235-131.968c-73.216-0.426-132.608-59.904-132.267-132.821a132.523 132.523 0 0 1 133.291-131.67A132.523 132.523 0 0 1 853.675 626.86a132.736 132.736 0 0 1-133.291 131.84zM883.243 865.92a11.179 11.179 0 0 0-13.056 7.04l-14.08 39.253-53.547-98.005c24.235-13.227 41.899-22.827 63.659-44.501l58.709 105.557-41.685-9.344z" p-id="8340"></path>
</svg>