<?xml version="1.0" encoding="UTF-8"?>
<svg width="183px" height="44px" viewBox="0 0 183 44" version="1.1" xmlns="http://www.w3.org/2000/svg" xmlns:xlink="http://www.w3.org/1999/xlink">
    <!-- Generator: Sketch 60.1 (88133) - https://sketch.com -->
    <title>logo</title>
    <desc>Created with Sketch.</desc>
    <defs>
        <linearGradient x1="85.7699834%" y1="25.2855307%" x2="14.2300166%" y2="78.0939792%" id="linearGradient-1">
            <stop stop-color="#5541D9" stop-opacity="0.6" offset="0%"></stop>
            <stop stop-color="#5541D9" offset="100%"></stop>
        </linearGradient>
        <linearGradient x1="14.2467049%" y1="78.0939792%" x2="85.7532951%" y2="25.2855307%" id="linearGradient-2">
            <stop stop-color="#44BCCE" stop-opacity="0.6" offset="0%"></stop>
            <stop stop-color="#44BCCE" offset="100%"></stop>
        </linearGradient>
    </defs>
    <g id="页面-1" stroke="none" stroke-width="1" fill="none" fill-rule="evenodd">
        <g id="logo" fill-rule="nonzero">
            <g id="编组-4">
                <path d="M36.4933701,20.1849848 L36.4933701,31.9571138 L18.4955699,43.5759524 C17.5164531,44.1436945 15.8845916,43.5007267 15.915597,42.2985332 L15.915597,32.8612427 C15.9417068,31.6547911 16.9648839,31.3169848 17.8020288,30.7080814 L35.2286775,19.4554364 L36.4933701,20.1849848 Z" id="Path" fill="url(#linearGradient-1)"></path>
                <path d="M36.4934728,31.9372427 L36.4934728,19.1630492 C36.4968809,18.8308553 36.3225913,18.5161295 36.0217622,18.3114363 L27.3386273,12.7106621 C26.3595105,12.1429202 25.3118553,12.5190492 24.951214,12.7489847 L17.9342096,17.2909202 C16.6646214,18.2645976 16.9550927,19.3120814 17.7955014,19.8670492 L36.4934728,31.9372427 Z" id="Path" fill="#5541D9"></path>
                <path d="M5.20372127e-05,23.6056298 L5.20372127e-05,11.8349202 L17.9978522,0.208984725 C18.9769691,-0.35875721 20.6088306,0.284210531 20.5778252,1.48640408 L20.5778252,10.9307912 C20.5517154,12.1372428 19.5285383,12.4750492 18.6930252,13.0839525 L1.26637654,24.3351783 L5.20372127e-05,23.6056298 Z" id="Path" fill="url(#linearGradient-2)"></path>
                <path d="M-5.05200321e-05,11.8491138 L-5.05200321e-05,24.6233073 C-0.00345860048,24.9555013 0.170830856,25.270227 0.471660003,25.4749202 L9.15479489,31.0856298 C10.1339118,31.6533718 11.1815668,31.2772427 11.5422082,31.0473073 L18.5592126,26.5053718 C19.8288008,25.5316945 19.5383294,24.4842105 18.6979208,23.9292427 L-5.05200321e-05,11.8491138 Z" id="Path" fill="#44BCCE"></path>
            </g>
            <path d="M50.2406015,32 C52.3759398,32 54.1453634,31.6889842 55.5488722,31.0669525 C56.952381,30.4449208 58.0451128,29.532102 58.8270677,28.328496 C59.6090226,27.1248901 60,25.8100264 60,24.383905 C60,23.1701847 59.7067669,22.0727792 59.1203008,21.0916887 C58.5338346,20.1105981 57.5964912,19.2888083 56.3082707,18.6263193 C55.0200501,17.9638303 52.887218,17.308927 49.9097744,16.6616095 C48.7067669,16.4087511 47.9448622,16.135664 47.6240602,15.8423483 C47.2932331,15.5591469 47.1278195,15.2405453 47.1278195,14.8865435 C47.1278195,14.4010554 47.3283208,13.9888962 47.7293233,13.650066 C48.1303258,13.3112357 48.726817,13.1418206 49.518797,13.1418206 C50.481203,13.1418206 51.235589,13.3693931 51.7819549,13.8245383 C52.3283208,14.2796834 52.6867168,15.0079156 52.8571429,16.0092348 L52.8571429,16.0092348 L59.2781955,15.6299472 C58.9974937,13.3238786 58.1177945,11.6423703 56.6390977,10.5854222 C55.160401,9.52847405 53.0125313,9 50.1954887,9 C47.8997494,9 46.0927318,9.29078716 44.7744361,9.87236148 C43.4561404,10.4539358 42.4686717,11.2529683 41.8120301,12.2694591 C41.1553885,13.2859499 40.8270677,14.3656552 40.8270677,15.5085752 C40.8270677,17.248241 41.4686717,18.6794195 42.7518797,19.8021108 C44.0250627,20.9248021 46.1553885,21.824978 49.1428571,22.5026385 C50.9674185,22.907212 52.1303258,23.3370712 52.6315789,23.7922164 C53.1328321,24.2473615 53.3834586,24.7631926 53.3834586,25.3397098 C53.3834586,25.9465699 53.1203008,26.4801011 52.593985,26.9403034 C52.0676692,27.4005057 51.3182957,27.6306069 50.3458647,27.6306069 C49.0426065,27.6306069 48.0401003,27.1805189 47.3383459,26.280343 C46.9072682,25.7240545 46.6215539,24.9149077 46.481203,23.8529024 L46.481203,23.8529024 L40,24.262533 C40.1904762,26.5079156 41.0075188,28.3588391 42.4511278,29.8153034 C43.8947368,31.2717678 46.4912281,32 50.2406015,32 Z M70,14 L70,10 L63,10 L63,14 L70,14 Z M70,32 L70,16 L63,16 L63,32 L70,32 Z M79,32 L79,10 L72,10 L72,32 L79,32 Z M89.3588093,32 L89.3588093,27.8581173 L91.697506,25.6070941 L94.9839099,32 L102,32 L95.8399035,21.6452933 L101.663717,16.0627558 L94.0056315,16.0627558 L89.3588093,21.3451569 L89.3588093,10 L83,10 L83,32 L89.3588093,32 Z M116.954248,32 L116.954248,15.4324693 L124,15.4324693 L124,10 L103,10 L103,15.4324693 L110.045752,15.4324693 L110.045752,32 L116.954248,32 Z M134.453659,32 C136.956098,32 138.876694,31.6660661 140.215447,30.9981982 C141.554201,30.3303303 142.69729,29.2276276 143.644715,27.6900901 L143.644715,27.6900901 L137.450407,27.1567568 C137.059079,27.618018 136.693496,27.9399399 136.353659,28.1225225 C135.797561,28.4108108 135.210569,28.554955 134.592683,28.554955 C133.614363,28.554955 132.821409,28.2234234 132.213821,27.5603604 C131.781301,27.0990991 131.508401,26.3975976 131.395122,25.4558559 L131.395122,25.4558559 L144,25.4558559 L144,24.7927928 C144,22.7747748 143.644715,21.1363363 142.934146,19.8774775 C142.223577,18.6186186 141.188618,17.6576577 139.829268,16.9945946 C138.469919,16.3315315 136.61626,16 134.268293,16 C131.374526,16 129.106369,16.7399399 127.463821,18.2198198 C125.821274,19.6996997 125,21.636036 125,24.0288288 C125,25.7105105 125.40935,27.1735736 126.228049,28.418018 C127.046748,29.6624625 128.079133,30.5705706 129.325203,31.1423423 C130.571274,31.7141141 132.280759,32 134.453659,32 Z M137,22 L130,22 C130.116376,21.1363636 130.389859,20.4863636 130.820449,20.05 C131.495428,19.35 132.39734,19 133.526185,19 C134.503741,19 135.292186,19.2318182 135.891521,19.6954545 C136.490856,20.1590909 136.860349,20.9272727 137,22 L137,22 Z M155.026059,32 C156.831162,32 158.319083,31.7647765 159.489821,31.2943294 C160.660559,30.8238824 161.622421,30.1638164 162.375407,29.3141314 C163.128393,28.4644464 163.669924,27.4587459 164,26.2970297 L164,26.2970297 L158.012215,25.6633663 C157.733713,26.4794479 157.313382,27.0843084 156.751221,27.4779478 C156.189061,27.8715872 155.495385,28.0684068 154.670195,28.0684068 C153.679967,28.0684068 152.865092,27.7419742 152.22557,27.0891089 C151.586048,26.4362436 151.266287,25.4809481 151.266287,24.2232223 C151.266287,22.8118812 151.588626,21.7581758 152.233306,21.0621062 C152.877986,20.3660366 153.721227,20.0180018 154.763029,20.0180018 C155.588219,20.0180018 156.245793,20.1836184 156.735749,20.5148515 C157.225706,20.8460846 157.563518,21.3381338 157.749186,21.9909991 L157.749186,21.9909991 L163.675081,21.2565257 C163.107763,19.5379538 162.120114,18.2322232 160.712134,17.3393339 C159.304153,16.4464446 157.259229,16 154.577362,16 C152.658795,16 151.085776,16.2352235 149.858306,16.7056706 C149.084691,17.0033003 148.331705,17.4569457 147.599349,18.0666067 C146.866992,18.6762676 146.289359,19.3651365 145.86645,20.1332133 C145.288817,21.179718 145,22.490249 145,24.0648065 C145,25.5721572 145.237242,26.7818782 145.711726,27.6939694 C146.186211,28.6060606 146.841205,29.4005401 147.67671,30.0774077 C148.512215,30.7542754 149.510179,31.2439244 150.670603,31.5463546 C151.831026,31.8487849 153.282845,32 155.026059,32 Z M171.523598,32 L171.523598,24.3465211 C171.523598,22.8958618 171.769368,21.8904047 172.260908,21.3301501 C172.752449,20.7698954 173.393589,20.4897681 174.184328,20.4897681 C174.900267,20.4897681 175.455922,20.6973624 175.851291,21.1125512 C176.246661,21.5277399 176.444346,22.2355616 176.444346,23.2360164 L176.444346,23.2360164 L176.444346,32 L183,32 L183,21.8703956 C183,19.7794452 182.48976,18.2287403 181.469279,17.218281 C180.448798,16.2078217 179.051647,15.7025921 177.277827,15.7025921 C176.081033,15.7025921 175.044524,15.8876762 174.168299,16.2578445 C173.292075,16.6280127 172.410508,17.2432924 171.523598,18.1036835 L171.523598,18.1036835 L171.523598,10 L165,10 L165,32 L171.523598,32 Z" id="SilkTech" fill-opacity="0.453452797" fill="#44D7B6"></path>
        </g>
    </g>
</svg>