<svg t="1562297756616" viewBox="0 0 1024 1024" version="1.1" p-id="27970" width="20" height="20">
    <path d="M512 512m-512 0a512 512 0 1 0 1024 0 512 512 0 1 0-1024 0Z" fill="#B7EB81" p-id="27971"></path>
    <path d="M245.76 286.72c0-16.96768 13.70112-30.72 30.73024-30.72H747.52A30.6688 30.6688 0 0 1 778.24 286.72v491.52c0 16.96768-13.70112 30.72-30.73024 30.72H276.48A30.6688 30.6688 0 0 1 245.76 778.24V286.72z m194.56 133.12c0 11.38688 9.18528 20.48 20.52096 20.48h214.95808A20.44928 20.44928 0 0 0 696.32 419.84c0-11.38688-9.18528-20.48-20.52096-20.48H460.84096A20.44928 20.44928 0 0 0 440.32 419.84z m0 122.88c0 11.38688 9.18528 20.48 20.52096 20.48h214.95808A20.44928 20.44928 0 0 0 696.32 542.72c0-11.38688-9.18528-20.48-20.52096-20.48H460.84096A20.44928 20.44928 0 0 0 440.32 542.72z m0 122.88c0 11.38688 9.18528 20.48 20.52096 20.48h214.95808A20.44928 20.44928 0 0 0 696.32 665.6c0-11.38688-9.18528-20.48-20.52096-20.48H460.84096A20.44928 20.44928 0 0 0 440.32 665.6z m-71.68-204.8a40.96 40.96 0 1 0 0-81.92 40.96 40.96 0 0 0 0 81.92z m0 122.88a40.96 40.96 0 1 0 0-81.92 40.96 40.96 0 0 0 0 81.92z m0 122.88a40.96 40.96 0 1 0 0-81.92 40.96 40.96 0 0 0 0 81.92z" fill="#FFFFFF" p-id="27972"></path>
    <path d="M451.40992 194.56h-52.06016C376.69888 194.56 358.4 212.91008 358.4 235.54048v61.46048c0 5.64224 4.57728 10.19904 10.21952 10.19904h286.76096c5.632 0 10.21952-4.56704 10.21952-10.19904v-61.46048A40.96 40.96 0 0 0 624.64 194.56h-52.04992a61.46048 61.46048 0 0 0-121.18016 0z" fill="#00BB74" p-id="27973"></path>
</svg>