<svg t="1562898754895" viewBox="0 0 1107 1024" version="1.1" p-id="3877">
    <path d="M1107.027027 372.348541v418.124108a110.702703 110.702703 0 0 1-110.702703 110.702702H665.876757l-112.252541 112.224865-112.197189-112.224865H110.702703a110.702703 110.702703 0 0 1-110.702703-110.702702V127.640216a110.702703 110.702703 0 0 1 110.702703-110.702702h642.573838a33.210811 33.210811 0 1 1 0 66.421621H110.702703a44.281081 44.281081 0 0 0-44.281081 44.281081v662.832433a44.281081 44.281081 0 0 0 44.281081 44.281081h358.233946l84.687567 84.687567 84.715243-84.687567H996.324324a44.281081 44.281081 0 0 0 44.281081-44.281081V372.348541a33.210811 33.210811 0 1 1 66.421622 0zM1053.696 19.64973l31.273514 31.273513a66.421622 66.421622 0 0 1 0 93.958919l-266.129298 266.156973h-125.232432v-125.260108L959.764757 19.64973a66.421622 66.421622 0 0 1 93.958919 0zM752.224865 352.422054h31.301189l246.700973-246.673297-31.301189-31.328865-246.700973 246.700973v31.328865zM232.475676 515.155027h642.075675a33.210811 33.210811 0 1 1 0 66.421622H232.475676a33.210811 33.210811 0 0 1 0-66.421622z m0-154.983784h343.178378a33.210811 33.210811 0 1 1 0 66.421622H232.475676a33.210811 33.210811 0 1 1 0-66.421622z m0-154.983784h343.178378a33.210811 33.210811 0 1 1 0 66.421622H232.475676a33.210811 33.210811 0 1 1 0-66.421622z m0 464.951352h642.075675a33.210811 33.210811 0 1 1 0 66.421621H232.475676a33.210811 33.210811 0 1 1 0-66.421621z" fill="#5F94E7" p-id="3878"></path>
</svg>