<svg t="1562555921737" class="icon" viewBox="0 0 1126 1024" version="1.1" 
  xmlns="http://www.w3.org/2000/svg" p-id="15462" width="20" height="20">
  <path d="M1126.4 716.8H0v307.2h1126.4v-307.2zM204.8 819.2v102.4H102.4v-102.4h102.4z m51.2 0h102.4v102.4H256v-102.4z m153.6 0h102.4v102.4H409.6v-102.4z m512 0h102.4v102.4h-102.4v-102.4zM1126.4 358.4H0v307.2h1126.4V358.4zM204.8 460.8v102.4H102.4V460.8h102.4z m51.2 0h102.4v102.4H256V460.8z m153.6 0h102.4v102.4H409.6V460.8z m512 0h102.4v102.4h-102.4V460.8zM1126.4 0H0v307.2h1126.4V0zM204.8 102.4v102.4H102.4V102.4h102.4z m51.2 0h102.4v102.4H256V102.4z m153.6 0h102.4v102.4H409.6V102.4z m512 0h102.4v102.4h-102.4V102.4z" p-id="15463"></path>
</svg>