<?xml version="1.0" standalone="no"?><!DOCTYPE svg PUBLIC "-//W3C//DTD SVG 1.1//EN" "http://www.w3.org/Graphics/SVG/1.1/DTD/svg11.dtd"><svg t="1575435688874" class="icon" viewBox="0 0 1024 1024" version="1.1" xmlns="http://www.w3.org/2000/svg" p-id="1476" width="20" height="20" xmlns:xlink="http://www.w3.org/1999/xlink"><defs><style type="text/css"></style></defs><path d="M529.52869 714.530744c9.03042 4.168506 19.729854 2.918761 27.284767-3.33803l405.441653-333.682068a25.398055 25.398055 0 0 0 9.231992-19.600849c0-7.716171-3.354156-14.811501-9.441626-19.608911L556.805395 5.868563c-7.756485-6.248728-18.246285-7.708108-27.276705-3.329967a25.325489 25.325489 0 0 0-14.690558 23.14045v174.561237C50.013407 216.930434 51.90012 567.29459 52.738659 737.050353v20.237816c0 11.675043 7.764548 21.689133 19.10095 24.59983 2.096347 0.628904 4.40233 0.838539 6.498677 0.838539 9.03042 0 17.633507-4.79741 22.455106-12.932851C238.039644 529.544211 350.944078 517.869168 514.838132 517.248327v174.141967c0 9.796393 5.668201 18.770372 14.690558 23.14045zM104.582943 667.185544c2.305982-74.033315 12.174941-162.249227 52.884395-236.911446 64.632003-118.870961 189.921013-177.681569 383.196181-179.560219 14.061653-0.209635 25.398055-11.473471 25.398056-25.446433V79.700307l339.334143 278.20949-339.124509 279.039967V491.584197c0-6.667997-2.733315-13.344058-7.562976-18.141468a25.801199 25.801199 0 0 0-18.254348-7.506537c-179.84242 0.209635-303.873621 10.844566-435.870942 201.249352z m861.880988 329.303928c0 13.972962-11.546037 25.446432-25.817325 25.446432H78.346348a25.72057 25.72057 0 0 1-25.817324-25.656067v-112.194901a25.72057 25.72057 0 0 1 25.817324-25.656067 25.72057 25.72057 0 0 1 25.809262 25.656067v86.756531h810.673672V525.16607a25.72057 25.72057 0 0 1 25.809261-25.656068 25.72057 25.72057 0 0 1 25.817325 25.656068v471.323402z" fill="#20A0FF" p-id="1477"></path></svg>