<svg  viewBox="0 0 21 18" version="1.1" >
    <g id="Page-1" >
        <g id="ldap" >
            <path d="M4.63355655,9.171875 C4.96279762,9.171875 5.22879464,8.89257812 5.22879464,8.546875 L5.22879464,1.83203125 C5.22879464,1.51171875 5.47619048,1.25390625 5.77938988,1.25390625 L14.4735863,1.25390625 C14.7786458,1.25390625 15.0241815,1.51367188 15.0241815,1.83203125 L15.0241815,8.57617187 C15.0241815,8.65234375 15.0372024,8.72851562 15.063244,8.79882812 C15.297619,9.44726562 16.2146577,9.26953125 16.2146577,8.57617187 L16.2146577,1.83203125 C16.2146577,0.822265625 15.4352679,0.00390625 14.4735863,0.00390625 L5.77938988,0.00390625 C4.81770833,0.00390625 4.03831845,0.822265625 4.03831845,1.83203125 L4.03831845,8.546875 C4.03831845,8.89257812 4.30431548,9.171875 4.63355655,9.171875 Z" id="Path"></path>
            <path d="M13.5392957,3.88671875 C13.5392957,3.54101563 13.2531813,3.26171875 12.8990396,3.26171875 L7.37082833,3.26171875 C7.01668667,3.26171875 6.73057223,3.54101563 6.73057223,3.88671875 C6.73057223,4.23242188 7.01668667,4.51171875 7.37082833,4.51171875 L12.8990396,4.51171875 C13.2511805,4.51171875 13.5392957,4.23242188 13.5392957,3.88671875 L13.5392957,3.88671875 Z M12.8990396,6.20507813 L7.37082833,6.20507813 C7.01668667,6.20507813 6.73057223,6.484375 6.73057223,6.83007813 C6.73057223,7.17578125 7.01668667,7.45507813 7.37082833,7.45507813 L12.8990396,7.45507813 C13.2531813,7.45507813 13.5392957,7.17578125 13.5392957,6.83007813 C13.5392957,6.484375 13.2511805,6.20507813 12.8990396,6.20507813 L12.8990396,6.20507813 Z M0.9242497,10.7519531 L0.888235294,10.7519531 C0.564105642,10.7519531 0.3,11.0097656 0.3,11.3261719 L0.3,16.4316406 C0.3,16.7480469 0.564105642,17.0058594 0.888235294,17.0058594 L4.09351741,17.0058594 C4.41764706,17.0058594 4.6817527,16.7480469 4.6817527,16.4316406 C4.6817527,16.1152344 4.41764706,15.8574219 4.09351741,15.8574219 L1.51248499,15.8574219 L1.51248499,11.3261719 C1.51248499,11.0097656 1.25038015,10.7519531 0.9242497,10.7519531 Z M10.1539416,13.8789063 C10.1539416,12.8808594 9.89983994,12.1191406 9.40364146,11.59375 C8.87943177,11.0332031 8.12112845,10.7519531 7.10872349,10.7519531 L5.42004802,10.7519531 C5.09591837,10.7519531 4.83181273,11.0097656 4.83181273,11.3261719 L4.83181273,16.4316406 C4.83181273,16.7480469 5.09591837,17.0058594 5.42004802,17.0058594 L7.10872349,17.0058594 C8.12112845,17.0058594 8.88143257,16.7246094 9.40364146,16.1640625 C9.90184074,15.6308594 10.1539416,14.8691406 10.1539416,13.8789062 L10.1539416,13.8789063 Z M8.53129252,15.3828125 C8.18315326,15.7167969 7.53889556,15.8652344 6.99667867,15.8652344 L6.05030012,15.8652344 L6.05030012,11.8613281 L6.99667867,11.8613281 C7.68695478,11.8613281 8.21316527,12.0175781 8.53129252,12.3359375 C8.84141657,12.6464844 8.99747899,13.0292969 8.99747899,13.7304688 C8.99747899,14.5976562 8.80940376,15.1171875 8.53129252,15.3828125 Z M11.8206082,11.1269531 L9.87583033,16.2324219 C9.73177271,16.6074219 10.0178872,17.0078125 10.4280512,17.0078125 L10.4760704,17.0078125 C10.7261705,17.0078125 10.9482593,16.8535156 11.0302921,16.625 L11.4584634,15.4394531 L13.6473389,15.4394531 L14.0755102,16.625 C14.1595438,16.8554688 14.3816327,17.0078125 14.6297319,17.0078125 L14.6577431,17.0078125 C15.0679072,17.0078125 15.3520208,16.6074219 15.209964,16.2324219 L13.2651861,11.1269531 C13.1791517,10.9023438 12.9590636,10.7519531 12.7129652,10.7519531 L12.3708283,10.7519531 C12.1267307,10.7519531 11.9066427,10.9003906 11.8206082,11.1269531 Z M11.822609,14.4375 L12.5288916,12.4726562 L12.554902,12.4726562 L13.2551821,14.4375 L11.822609,14.4375 L11.822609,14.4375 Z M18.0390956,10.7519531 L16.0442977,10.7519531 C15.7201681,10.7519531 15.4560624,11.0097656 15.4560624,11.3261719 L15.4560624,16.4316406 C15.4560624,16.7480469 15.7201681,17.0058594 16.0442977,17.0058594 L16.0883153,17.0058594 C16.412445,17.0058594 16.6765506,16.7480469 16.6765506,16.4316406 L16.6765506,14.6054688 L18.0210884,14.6054688 C19.5396959,14.6054688 20.3,13.9570312 20.3,12.6699219 C20.3,11.390625 19.5396959,10.7519531 18.0390956,10.7519531 L18.0390956,10.7519531 Z M18.9554622,13.328125 C18.7453782,13.4863281 18.4152461,13.5742188 17.9610644,13.5742188 L16.6765506,13.5742188 L16.6765506,11.8046875 L17.9610644,11.8046875 C18.4052421,11.8046875 18.7373749,11.8828125 18.947459,12.0507812 C19.157543,12.2089844 19.2695878,12.4003906 19.2695878,12.671875 C19.2695878,12.9980469 19.1655462,13.1621094 18.9554622,13.328125 L18.9554622,13.328125 Z" id="Shape"></path>
        </g>
    </g>
</svg>