<svg t="1562555491759" class="icon" viewBox="0 0 1024 1024" version="1.1" 
    xmlns="http://www.w3.org/2000/svg" p-id="6876" width="20" height="20">
    <path d="M923.6 744.6c-10 7.7-25.6 11.8-47.3 11.8h-61.1v-85.3h61.1c21.1 0 36.9 3.8 46.9 11.8 10 7.7 15.3 16.9 15.3 29.9-0.1 15.9-5 23.9-14.9 31.8zM880 620.4h-95c-15.4 0-27.9 12.4-27.9 27.8v246.3c0 15.3 12.6 27.7 27.9 27.7h2.1c15.4 0 27.9-12.4 27.9-27.7v-88.1h64c72.2 0 108.3-31.2 108.3-93.4 0.1-61.9-36-92.6-107.3-92.6zM584.4 798.2l33.6-94.8h1.2l33.3 94.8h-68.1z m-0.1-159.7l-92.5 246.3c-6.8 18.1 6.7 37.4 26.2 37.4h2.3c11.9 0 22.5-7.5 26.3-18.5l20.4-57.2h104.1l20.4 57.2c4 11.1 14.6 18.5 26.3 18.5h1.3c19.5 0 33-19.3 26.2-37.4l-92.5-246.3c-4.1-10.8-14.6-18.1-26.2-18.1h-16.2c-11.6 0-22 7.2-26.1 18.1zM427.9 843.8c-16.5 16.1-47.2 23.3-73 23.3H310V673.9h44.9c32.8 0 57.8 7.6 73 22.9 14.8 15 22.2 33.4 22.2 67.3 0 41.8-9 66.8-22.2 79.7z m77.2-72.5c0-48.1-12.1-84.9-35.6-110.3-25-27-61-40.6-109.1-40.6H280c-15.4 0-27.9 12.4-27.9 27.8v246.3c0 15.3 12.6 27.7 27.9 27.7h80.2c48.1 0 84.3-13.6 109.1-40.6 23.8-25.9 35.8-62.6 35.8-110.3zM66.2 620.4h-1.7c-15.4 0-27.9 12.4-27.9 27.8v246.3c0 15.3 12.6 27.7 27.9 27.7h152.4c15.4 0 27.9-12.4 27.9-27.7 0-15.3-12.6-27.7-27.9-27.7H94.2V648.1c0-15.3-12.5-27.7-28-27.7zM635.5 401H372.6c-16.8 0-30.4 13.5-30.4 30.1 0 16.7 13.6 30.1 30.4 30.1h262.9c16.8 0 30.4-13.5 30.4-30.1 0.1-16.6-13.6-30.1-30.4-30.1zM666 289.2c0-16.7-13.6-30.1-30.4-30.1H372.7c-16.8 0-30.4 13.5-30.4 30.1s13.6 30.1 30.4 30.1h262.9c16.7 0 30.4-13.4 30.4-30.1zM193.7 514V190c0-48.7 39.8-88.2 89-88.2h444.7c49.2 0 89 39.5 89 88.2v325.4c0 33.4-46.9 42.1-58.9 10.7-1.4-3.4-2-7.1-2-10.7V190c0-15.3-12.6-27.8-28.1-27.8H282.7c-15.5 0-28.2 12.4-28.2 27.8v324c0 16.7-13.6 30.1-30.4 30.1s-30.4-13.4-30.4-30.1z" p-id="6877"></path>
</svg>