<svg viewBox="0 0 20 19" version="1.1" >
    <g id="ldif" stroke-width="1" >
        <g id="ldap" >
            <path d="M4.6811756,9.171875 C5.01041667,9.171875 5.27641369,8.89257812 5.27641369,8.546875 L5.27641369,1.83203125 C5.27641369,1.51171875 5.52380952,1.25390625 5.82700893,1.25390625 L14.5212054,1.25390625 C14.8262649,1.25390625 15.0718006,1.51367188 15.0718006,1.83203125 L15.0718006,8.57617187 C15.0718006,8.65234375 15.0848214,8.72851562 15.1108631,8.79882812 C15.3452381,9.44726562 16.2622768,9.26953125 16.2622768,8.57617187 L16.2622768,1.83203125 C16.2622768,0.822265625 15.4828869,0.00390625 14.5212054,0.00390625 L5.82700893,0.00390625 C4.86532738,0.00390625 4.0859375,0.822265625 4.0859375,1.83203125 L4.0859375,8.546875 C4.0859375,8.89257812 4.35193452,9.171875 4.6811756,9.171875 Z" id="Path"></path>
            <path d="M14.2878318,3.88671875 C14.2878318,3.54101563 13.979818,3.26171875 13.5985702,3.26171875 L7.64722683,3.26171875 C7.26597899,3.26171875 6.9579652,3.54101563 6.9579652,3.88671875 C6.9579652,4.23242188 7.26597899,4.51171875 7.64722683,4.51171875 L13.5985702,4.51171875 C13.9776641,4.51171875 14.2878318,4.23242188 14.2878318,3.88671875 L14.2878318,3.88671875 Z M13.5985702,6.20507812 C13.9776641,6.20507812 14.2878318,6.484375 14.2878318,6.83007812 C14.2878318,7.17578125 13.979818,7.45507812 13.5985702,7.45507812 L7.64722683,7.45507812 C7.26597899,7.45507812 6.9579652,7.17578125 6.9579652,6.83007812 C6.9579652,6.484375 7.26597899,6.20507812 7.64722683,6.20507812 L13.5985702,6.20507812 Z M1.93168662,11.4473145 L1.93168662,16.0841797 L4.5477999,16.0841797 C4.7563947,16.0841797 4.91645983,16.1348791 5.0280001,16.2362793 C5.13954037,16.3376795 5.19530967,16.4651522 5.19530967,16.6187012 C5.19530967,16.7751473 5.14026465,16.9018957 5.03017295,16.9989502 C4.92008125,17.0960047 4.75929185,17.1445312 4.5477999,17.1445312 L1.43193076,17.1445312 C1.15090722,17.1445312 0.948834048,17.0822435 0.825705177,16.957666 C0.702576306,16.8330886 0.641012794,16.6317397 0.641012794,16.3536133 L0.641012794,11.4473145 C0.641012794,11.186571 0.6996792,10.9910163 0.817013771,10.8606445 C0.934348342,10.7302728 1.08861926,10.6650879 1.27983115,10.6650879 C1.4739402,10.6650879 1.63110822,10.7295485 1.75133994,10.8584717 C1.87157166,10.9873949 1.93168662,11.1836738 1.93168662,11.4473145 Z M6.84233115,10.7737305 L8.52411826,10.7737305 C8.9615879,10.7737305 9.33676318,10.81429 9.64965537,10.8954102 C9.96254756,10.9765304 10.246464,11.1286284 10.5014132,11.351709 C11.1648605,11.9195504 11.4965792,12.7828881 11.4965792,13.941748 C11.4965792,14.3241718 11.4632625,14.6732732 11.396628,14.9890625 C11.3299936,15.3048518 11.2271463,15.5894925 11.0880831,15.8429932 C10.9490199,16.0964938 10.7708479,16.3231924 10.5535616,16.5230957 C10.3826298,16.6766446 10.1957664,16.7997717 9.99296592,16.8924805 C9.79016543,16.9851893 9.57215817,17.0503742 9.3389376,17.0880371 C9.10571703,17.1257001 8.84280462,17.1445312 8.55019248,17.1445312 L6.86840537,17.1445312 C6.63373623,17.1445312 6.45701274,17.1090417 6.33822959,17.0380615 C6.21944645,16.9670814 6.14194885,16.8671312 6.10573447,16.738208 C6.0695201,16.6092848 6.05141319,16.4419769 6.05141319,16.2362793 L6.05141319,11.5646484 C6.05141319,11.286522 6.11370097,11.0851731 6.23827842,10.9605957 C6.36285587,10.8360183 6.56420476,10.7737305 6.84233115,10.7737305 Z M7.34208701,11.7949707 L7.34208701,16.1189453 L8.31987022,16.1189453 C8.53425931,16.1189453 8.70229148,16.1131511 8.82397178,16.1015625 C8.94565207,16.0899739 9.07167621,16.0610028 9.20204795,16.0146484 C9.3324197,15.968294 9.44540685,15.9031091 9.54101279,15.8190918 C9.97268813,15.4540509 10.1885226,14.8253788 10.1885226,13.9330566 C10.1885226,13.3043751 10.0936423,12.8335953 9.90387901,12.5207031 C9.71411569,12.2078109 9.48017434,12.0086349 9.20204795,11.9231689 C8.92392156,11.837703 8.58785721,11.7949707 8.19384483,11.7949707 L7.34208701,11.7949707 Z M12.6829562,16.4666016 L12.6829562,11.4473145 C12.6829562,11.186571 12.7423468,10.9910163 12.86113,10.8606445 C12.9799131,10.7302728 13.1334598,10.6650879 13.3217745,10.6650879 C13.5158836,10.6650879 13.6730516,10.7295485 13.7932833,10.8584717 C13.913515,10.9873949 13.97363,11.1836738 13.97363,11.4473145 L13.97363,16.4666016 C13.97363,16.7302422 13.913515,16.9272454 13.7932833,17.0576172 C13.6730516,17.1879889 13.5158836,17.2531738 13.3217745,17.2531738 C13.1363569,17.2531738 12.9835346,17.1872647 12.8633028,17.0554443 C12.7430711,16.923624 12.6829562,16.7273451 12.6829562,16.4666016 Z M19.2232394,11.7688965 L16.681003,11.7688965 L16.681003,13.3985352 L18.8060519,13.3985352 C19.0030581,13.3985352 19.1500862,13.442716 19.2471407,13.5310791 C19.3441952,13.6194422 19.3927218,13.7374993 19.3927218,13.8852539 C19.3927218,14.0330086 19.343471,14.1503414 19.2449679,14.2372559 C19.1464648,14.3241704 19.0001609,14.367627 18.8060519,14.367627 L16.681003,14.367627 L16.681003,16.4666016 C16.681003,16.7331394 16.6208881,16.9308669 16.5006563,17.05979 C16.3804246,17.1887132 16.2261537,17.2531738 16.037839,17.2531738 C15.8466271,17.2531738 15.6909076,17.1879889 15.5706759,17.0576172 C15.4504442,16.9272454 15.3903292,16.7302422 15.3903292,16.4666016 L15.3903292,11.5646484 C15.3903292,11.3792308 15.4178517,11.227857 15.4728976,11.1105225 C15.5279434,10.9931879 15.6141323,10.9077232 15.7314669,10.854126 C15.8488015,10.8005287 15.9987267,10.7737305 16.1812472,10.7737305 L19.2232394,10.7737305 C19.428937,10.7737305 19.5817594,10.8193599 19.681711,10.9106201 C19.7816627,11.0018803 19.8316378,11.121386 19.8316378,11.2691406 C19.8316378,11.4197924 19.7816627,11.5407466 19.681711,11.6320068 C19.5817594,11.7232671 19.428937,11.7688965 19.2232394,11.7688965 Z" id="Shape"></path>
        </g>
    </g>
</svg>