<?xml version="1.0" encoding="UTF-8"?>
<svg width="37px" height="44px" viewBox="0 0 37 44" version="1.1" xmlns="http://www.w3.org/2000/svg" xmlns:xlink="http://www.w3.org/1999/xlink">
    <!-- Generator: Sketch 60.1 (88133) - https://sketch.com -->
    <title>newlog</title>
    <desc>Created with Sketch.</desc>
    <defs>
        <linearGradient x1="85.7699834%" y1="25.2855307%" x2="14.2300166%" y2="78.0939792%" id="linearGradient-1">
            <stop stop-color="#5541D9" stop-opacity="0.6" offset="0%"></stop>
            <stop stop-color="#5541D9" offset="100%"></stop>
        </linearGradient>
        <linearGradient x1="14.2467049%" y1="78.0939792%" x2="85.7532951%" y2="25.2855307%" id="linearGradient-2">
            <stop stop-color="#44BCCE" stop-opacity="0.6" offset="0%"></stop>
            <stop stop-color="#44BCCE" offset="100%"></stop>
        </linearGradient>
    </defs>
    <g id="页面-1" stroke="none" stroke-width="1" fill="none" fill-rule="evenodd">
        <g id="newlog" fill-rule="nonzero">
            <g id="编组-4">
                <path d="M36.4933701,20.1849848 L36.4933701,31.9571138 L18.4955699,43.5759524 C17.5164531,44.1436945 15.8845916,43.5007267 15.915597,42.2985332 L15.915597,32.8612427 C15.9417068,31.6547911 16.9648839,31.3169848 17.8020288,30.7080814 L35.2286775,19.4554364 L36.4933701,20.1849848 Z" id="Path" fill="url(#linearGradient-1)"></path>
                <path d="M36.4935219,31.9372427 L36.4935219,19.1630492 C36.4968809,18.8308553 36.3225913,18.5161295 36.0217622,18.3114363 L27.3386273,12.7106621 C26.3595105,12.1429202 25.3118553,12.5190492 24.951214,12.7489847 L17.9342096,17.2909202 C16.6646214,18.2645976 16.9550927,19.3120814 17.7955014,19.8670492 L36.4935219,31.9372427 Z" id="Path" fill="#5541D9"></path>
                <path d="M5.20372127e-05,23.6056298 L5.20372127e-05,11.8349202 L17.9978522,0.208984725 C18.9769691,-0.35875721 20.6088306,0.284210531 20.5778252,1.48640408 L20.5778252,10.9307912 C20.5517154,12.1372428 19.5285383,12.4750492 18.6930252,13.0839525 L1.26637654,24.3351783 L5.20372127e-05,23.6056298 Z" id="Path" fill="url(#linearGradient-2)"></path>
                <path d="M-9.95881994e-05,11.8491138 L-9.95881994e-05,24.6233073 C-0.00345860048,24.9555013 0.170830856,25.270227 0.471660003,25.4749202 L9.15479489,31.0856298 C10.1339118,31.6533718 11.1815668,31.2772427 11.5422082,31.0473073 L18.5592126,26.5053718 C19.8288008,25.5316945 19.5383294,24.4842105 18.6979208,23.9292427 L-9.95881994e-05,11.8491138 Z" id="Path" fill="#44BCCE"></path>
            </g>
        </g>
    </g>
</svg>