<svg width="21px" height="21px" viewBox="0 0 21 21" version="1.1" xmlns="http://www.w3.org/2000/svg" >
    <g id="Page-1" stroke="none" strokeWidth="1" fill="none" fillRule="evenodd">
        <g id="test" fill="#D4237A" fillRule="nonzero">
            <path d="M13.1031505,5.50219707 C12.5186582,6.08673926 12.8048222,7.32008184 13.7424837,8.25775518 C14.6800771,9.1941033 15.9133485,9.48171898 16.4978069,8.89714281 C17.0810081,8.31392588 16.7947761,7.08065127 15.8571147,6.14290996 C14.9195212,5.20523659 13.6863178,4.91898014 13.1031505,5.50219707 Z M10.4781174,4.90835442e-16 C4.6904028,4.90835442e-16 0,4.69145075 0,10.4781174 C0,16.2647841 4.69037662,20.9562348 10.4781174,20.9562348 C16.2647841,20.9562348 20.9562348,16.2647841 20.9562348,10.4781174 C20.9562348,4.69145075 16.2648103,0 10.4781174,4.90835442e-16 Z M17.487683,11.6693265 C16.2894705,12.9228175 14.122262,12.7523664 12.3102845,11.3860554 L6.78621352,17.1652746 C6.35865395,17.6126476 5.66403304,17.6113452 5.23522857,17.1627349 C4.80517921,16.7128547 4.80396542,15.9861178 5.23280101,15.53881 L5.65173969,15.0991862 L4.46093428,13.8546492 C4.24656318,13.6290417 4.24656318,13.2650546 4.45968939,13.0420193 C4.67412275,12.8190165 5.0220712,12.8190165 5.23647346,13.0433217 L6.42727885,14.2891611 L6.81441043,13.8828135 L6.40154063,13.4509065 C6.1858935,13.2266013 6.1858935,12.8625817 6.40029574,12.6395789 C6.6134842,12.4152738 6.96143266,12.4165436 7.17580379,12.6408488 L7.58867359,13.0727884 L7.97583627,12.6677758 L6.78621352,11.421969 C6.57059753,11.1976313 6.57059753,10.834914 6.78496863,10.6106414 C6.9981571,10.3863037 7.34610555,10.3876061 7.56050781,10.6119438 L8.7513132,11.8577506 L10.7568409,9.7595908 C9.45701369,7.86392096 9.29530169,5.60299418 10.4922382,4.34943808 C11.882756,2.89469439 14.5768046,3.35486343 16.5075763,5.37481441 C18.439624,7.39610034 18.878232,10.2145503 17.4877142,11.669294 L17.487683,11.6693265 Z" id="Shape"></path>
        </g>
    </g>
</svg>