<svg t="1562306719054" viewBox="0 0 1024 1024" version="1.1" p-id="31350" width="28" height="28">
    <path d="M512 512m-472.177778 0a472.177778 472.177778 0 1 0 944.355556 0 472.177778 472.177778 0 1 0-944.355556 0Z" fill="#31C5B3" p-id="31351"></path>
    <path d="M91.022222 568.888889l62.577778-5.688889c0 17.066667 5.688889 34.133333 11.377778 39.822222 11.377778 11.377778 28.444444 17.066667 51.2 17.066667s34.133333-5.688889 45.511111-11.377778c11.377778-5.688889 11.377778-17.066667 11.377778-28.444444s-5.688889-17.066667-11.377778-22.755556c-5.688889-5.688889-17.066667-11.377778-45.511111-22.755555-22.755556-11.377778-39.822222-17.066667-51.2-28.444445-11.377778-5.688889-17.066667-11.377778-28.444445-22.755555-5.688889-11.377778-5.688889-28.444444-5.688889-39.822223 0-28.444444 11.377778-45.511111 28.444445-62.577777 17.066667-17.066667 45.511111-28.444444 79.644444-28.444445 34.133333 0 62.577778 5.688889 85.333334 22.755556 17.066667 17.066667 28.444444 39.822222 34.133333 68.266666H295.822222c0-17.066667-5.688889-28.444444-17.066666-34.133333-5.688889-5.688889-22.755556-5.688889-39.822223-5.688889-17.066667 0-28.444444 5.688889-39.822222 11.377778-5.688889 0-11.377778 11.377778-11.377778 17.066667 0 11.377778 5.688889 17.066667 11.377778 22.755555 5.688889 5.688889 22.755556 11.377778 45.511111 22.755556 39.822222 17.066667 62.577778 34.133333 68.266667 39.822222 17.066667 11.377778 22.755556 34.133333 22.755555 56.888889 0 28.444444-11.377778 51.2-34.133333 68.266666-22.755556 17.066667-51.2 28.444444-91.022222 28.444445-28.444444 0-51.2-5.688889-68.266667-11.377778s-28.444444-22.755556-39.822222-39.822222c-5.688889-17.066667-11.377778-34.133333-11.377778-51.2zM364.088889 568.888889l62.577778-5.688889c0 17.066667 5.688889 34.133333 11.377777 39.822222 11.377778 11.377778 28.444444 17.066667 51.2 17.066667s34.133333-5.688889 45.511112-11.377778c11.377778-5.688889 11.377778-17.066667 11.377777-28.444444s-5.688889-17.066667-11.377777-22.755556c-5.688889-5.688889-22.755556-11.377778-45.511112-22.755555s-39.822222-17.066667-51.2-28.444445c-11.377778-5.688889-22.755556-11.377778-28.444444-22.755555-5.688889-11.377778-5.688889-28.444444-5.688889-39.822223 0-28.444444 11.377778-45.511111 28.444445-62.577777 17.066667-22.755556 45.511111-28.444444 79.644444-28.444445 34.133333 0 62.577778 5.688889 85.333333 22.755556 17.066667 17.066667 28.444444 39.822222 28.444445 68.266666H563.2c0-17.066667-5.688889-28.444444-17.066667-34.133333-5.688889-5.688889-17.066667-5.688889-34.133333-5.688889s-28.444444 5.688889-39.822222 11.377778c-5.688889 0-11.377778 11.377778-11.377778 17.066667 0 11.377778 5.688889 17.066667 11.377778 22.755555 5.688889 5.688889 22.755556 11.377778 45.511111 22.755556 34.133333 17.066667 56.888889 28.444444 68.266667 39.822222 17.066667 11.377778 22.755556 34.133333 22.755555 56.888889 0 28.444444-11.377778 51.2-34.133333 68.266666-22.755556 17.066667-51.2 28.444444-91.022222 28.444445-28.444444 0-51.2-5.688889-68.266667-11.377778s-34.133333-22.755556-39.822222-39.822222c-5.688889-17.066667-11.377778-34.133333-11.377778-51.2zM830.577778 529.066667h-119.466667l-28.444444 136.533333h-62.577778L682.666667 358.4h62.577777l-22.755555 119.466667h119.466667l22.755555-119.466667h62.577778l-62.577778 307.2h-62.577778l28.444445-136.533333z" fill="#FFFFFF" p-id="31352"></path>
</svg>