<svg t="1562555550841" class="icon" viewBox="0 0 1025 1024" version="1.1" 
    xmlns="http://www.w3.org/2000/svg" p-id="9132" width="20" height="20">
    <path d="M837.46774 640.845767c-5.493651-4.679186-8.320327-7.298252-11.41849-9.58195-31.668345-23.731296-43.198625-50.496877-36.970357-93.90311 22.677282-159.10828-106.487404-290.077566-236.897744-304.179003-164.394322-17.806457-299.755336 85.407114-320.596077 242.998252-24.92904 188.365167 141.73301 345.748696 329.092073 310.008022 21.00044-3.960539 35.277546 0.558947 49.011674 15.778278 9.757619 10.731784 22.102365 19.21181 37.417515 32.163412-42.943106 22.357883-43.581903 57.42782-41.298205 93.487892 2.187879 35.453215-4.423667 69.580927-39.733153 83.842063-38.615259 15.650518-82.308951 18.860472-118.305142-4.471577-16.592743-10.843573-25.152619-37.481394-31.668345-58.609594-5.014554-16.081706-0.782526-34.830388-1.197744-52.397297-0.622827-28.043174-13.47861-48.788095-39.509574-59.615698-25.983054-10.987303-49.81017-6.292147-70.251663 13.542489-12.584294 12.296836-24.83322 24.8971-37.832733 36.842598-25.152619 22.96474-60.158676 29.656135-85.950091 11.003272A276.343438 276.343438 0 0 1 121.743985 838.585275c-18.093916-24.481882-10.891483-62.282675 11.306701-86.029941 12.041317-12.839813 25.248438-24.418003 37.561244-36.986327 17.854367-18.221675 24.290243-40.32404 16.496924-64.630253-8.112718-25.264408-26.701701-41.106566-53.227732-44.476218-20.265824-2.682946-40.914927-2.187879-61.46821-3.209953C28.128333 601.064704 2.368858 575.369108 0.452468 531.132439a531.255248 531.255248 0 0 1-0.04791-40.978806c1.692811-45.642022 30.454631-73.876835 76.384111-74.882939 16.640653-0.367308 33.313246 0.670737 49.93793-0.319399 27.564076-1.612962 49.123464-14.420835 59.47197-40.355979 10.220747-25.919175 4.455607-49.81017-15.586639-69.772566a2031.51713 2031.51713 0 0 1-33.105637-33.265336c-4.679186-4.854855-9.56598-9.885378-13.031452-15.586639-24.242334-39.988671-9.933288-79.737794 44.396368-124.166102 31.540585-25.839325 69.900325-24.545762 100.722264 3.7689 12.935633 11.897588 24.96098 24.817251 37.992432 36.619019 20.776862 18.988231 45.386503 23.188319 70.730761 12.232956 24.290243-10.492235 37.960492-29.720015 37.784823-57.42782-0.239549-18.525103-0.239549-37.098116 1.038044-55.59128 2.635036-35.884403 25.887235-63.847727 60.989112-68.830341A255.486727 255.486727 0 0 1 548.10882 2.528198c33.089667 4.583366 56.804994 33.744434 58.609594 67.568717 1.022075 19.451359-0.910285 39.174206 0.686707 58.577654 2.251758 27.069009 14.628444 47.8299 41.521783 58.465865 27.069009 10.731784 49.714351 3.78487 69.612867-15.538729 8.480026-8.112718 16.433044-16.800352 24.673521-25.120679 5.557531-5.509621 10.891483-11.306701 17.119751-15.985886 39.238085-30.103293 82.883868-17.407209 130.043031 37.545274 28.8257 33.520855 26.79752 73.317887-4.743065 104.586984-12.504445 12.344746-25.583807 24.306213-36.45932 37.928552-17.055871 21.319839-22.805041 46.00933-10.013138 71.114039 11.913558 23.523687 32.722359 35.405305 59.663609 35.405305 16.592743 0 33.281306-0.542977 49.84211 0.207609 39.589423 1.88445 67.999905 25.328288 72.87073 63.065201a242.710794 242.710794 0 0 1-0.09582 64.199065c-5.030524 37.497364-34.59084 61.723728-72.966549 63.161021-11.721919 0.463128-23.507717 0.942225-35.245606-0.03194-30.406721-2.363548-55.62322 7.058703-75.761285 33.169517zM312.40882 460.257949c24.258303 25.328288 48.021539 50.991944 72.74297 75.857104 47.031405 47.318863 108.180216 48.788095 153.502839 4.311878 46.727976-45.92948 46.00933-105.944427-2.954434-154.461034-24.97695-24.737401-51.550891-47.781991-75.202338-75.489796 63.25684-18.828532 120.604811-8.511966 172.011973 27.260647 81.382695 56.677234 111.725537 152.448825 78.54005 245.713138-6.324087 17.742577-1.006105 26.605881 10.268656 37.673034 60.829413 59.264361 121.483156 118.78424 181.753622 178.847096 34.49502 34.52696 32.690419 75.697405-3.305773 106.822773-29.001369 25.120679-65.15726 24.274273-94.605786-4.519486a13625.96409 13625.96409 0 0 1-181.130795-179.693503c-13.813978-14.069497-24.737401-17.646758-45.194864-10.795663-80.121072 26.957219-153.215381 10.428356-214.284342-47.654232-57.332001-54.585175-74.6913-122.61702-60.653744-198.745613 2.666976-1.644901 5.637381-3.353683 8.511966-5.126343z m541.603754 356.52839c-20.265824 2.395488-33.936073 12.919663-35.836493 34.335321-1.660871 19.595088 16.496924 37.337665 36.45932 37.337665 20.217915 0.09582 37.002297-16.976021 35.820523-37.561244-1.229684-22.102365-14.660384-32.211322-36.44335-34.111742z" p-id="9133"></path>
</svg>