<svg t="1562834863866" class="icon" viewBox="0 0 1028 1024" version="1.1" 
    xmlns="http://www.w3.org/2000/svg" p-id="2653" width="20" height="20">
    <path d="M489.981458 809.633112C219.817932 809.633112 0 589.81518 0 319.651654c0-86.481727 29.000778-166.991806 81.673784-226.708296 52.887374-59.930857 123.597823-92.943358 199.177463-92.943358 78.060171 0 154.58915 35.248041 221.3185 102.008015l2.174293 2.388659c62.962617 77.9683 127.180812 115.849991 196.268198 115.849991 44.710808 0 85.379269-15.189425 121.239787-28.633291 29.031401-10.84084 54.142951-20.211735 77.723308-20.211735 80.387583 0 80.387583 103.906693 80.387583 148.250015 0 270.163527-219.817932 489.981458-489.981458 489.981458z m409.593875-576.983791c-12.525151 0-33.778097 7.931575-56.255996 16.353131-38.739159 14.485077-86.941085 32.491895-142.707099 32.491896-88.380406 0-167.788026-44.925175-242.847061-137.28668-54.724804-54.265446-115.849991-82.959986-176.883306-82.959986-57.756564 0-112.17513 25.632155-153.241701 72.211018C84.82804 181.966864 61.247682 248.083737 61.247682 319.651654c0 236.416054 192.317722 428.733776 428.733776 428.733776s428.733776-192.317722 428.733776-428.733776c0-26.15276-1.868054-87.002333-19.139901-87.002333zM705.022071 407.633949a61.247682 61.247682 0 1 1 122.495364 0 61.247682 61.247682 0 1 1-122.495364 0z m-328.900054 193.97141a61.247682 61.247682 0 1 1 122.495364 0 61.247682 61.247682 0 1 1-122.495364 0z m206.404689-25.540283a61.247682 61.247682 0 1 1 122.495365 0 61.247682 61.247682 0 1 1-122.495365 0z m-364.913691-107.183444a61.247682 61.247682 0 1 1 122.495365 0 61.247682 61.247682 0 1 1-122.495365 0zM174.555894 232.80244a91.871523 91.871523 0 1 1 183.743047 0 91.871523 91.871523 0 1 1-183.743047 0z" fill="" p-id="2654"></path>
</svg>