<svg t="1564995775881" class="icon" viewBox="0 0 1024 1024" version="1.1" 
     p-id="6084" >
    <path d="M512 573.44v1.954909c-226.909091 0-407.272727 178.082909-407.272727 402.059636H46.545455c0-211.502545 146.711273-390.795636 344.576-443.671272-80.244364-49.803636-132.980364-140.753455-132.980364-246.597818C258.141091 126.370909 379.810909 0 534.807273 0c154.903273 0 276.619636 126.370909 276.619636 287.185455 0 160.861091-121.716364 287.185455-276.619636 287.185454-7.68 0-15.313455-0.325818-22.807273-0.930909z m22.807273-56.552727c121.716364 0 221.323636-103.330909 221.323636-229.701818 0-126.370909-99.607273-229.748364-221.323636-229.748364-121.762909 0-221.370182 103.424-221.370182 229.701818 0 126.417455 99.607273 229.748364 221.370182 229.748364z m55.296 402.059636V861.556364H977.454545v57.390545h-387.351272z m0-172.311273v-57.437091H977.454545v57.437091h-387.351272z" p-id="6085"></path>
</svg>