<svg t="1562635646972" viewBox="0 0 1024 1024" version="1.1" p-id="3861">
    <path d="M352.277333 643.066667C244.245333 585.76 170.666667 472.138667 170.666667 341.333333 170.666667 152.821333 323.488 0 512 0c188.512 0 341.333333 152.821333 341.333333 341.333333 0 188.512-152.821333 341.333333-341.333333 341.333334-213.317333 0-384 140.042667-384 309.333333a32 32 0 0 1-64 0c0-160.336 120.224-295.568 288.277333-348.933333zM512 618.666667c153.168 0 277.333333-124.165333 277.333333-277.333334s-124.165333-277.333333-277.333333-277.333333-277.333333 124.165333-277.333333 277.333333 124.165333 277.333333 277.333333 277.333334z m137.829333-187.12a16 16 0 0 1 23.008 22.24c-88.762667 91.84-232.906667 91.84-321.674666 0a16 16 0 1 1 23.008-22.24c76.186667 78.826667 199.472 78.826667 275.658666 0zM629.333333 789.333333a32 32 0 0 1 0-64h298.666667a32 32 0 0 1 0 64h-298.666667z m0 117.333334a32 32 0 0 1 0-64h298.666667a32 32 0 0 1 0 64h-298.666667z m0 117.333333a32 32 0 0 1 0-64h298.666667a32 32 0 0 1 0 64h-298.666667z" p-id="3862"></path>
</svg>