<svg t="1562636650483" viewBox="0 0 1024 1024" version="1.1"  p-id="12014" >
    <path d="M699.611429 190.902857c-46.518857-12.288-108.836571-37.083429-189.366858-75.044571-78.994286 37.668571-141.604571 62.683429-188.489142 74.971428-28.818286 7.606857-90.916571 16.237714-188.050286 26.185143 22.235429 315.757714 49.225143 502.272 76.726857 547.401143 42.276571 69.339429 143.652571 123.977143 300.763429 159.012571 156.379429-35.108571 257.536-89.819429 299.812571-159.012571 27.501714-45.129143 54.418286-231.643429 76.726857-547.401143-97.206857-9.947429-159.232-18.578286-188.123428-26.185143z m-597.138286-36.864c107.666286-10.752 175.981714-19.821714 202.605714-26.843428 44.617143-11.702857 108.470857-37.595429 190.756572-77.458286l14.262857-6.875429 14.262857 6.802286c84.114286 40.228571 147.675429 65.828571 192 77.531429 26.550857 7.021714 94.939429 16.091429 202.605714 26.770285a40.228571 40.228571 0 0 1 36.132572 42.788572c-23.625143 345.819429-51.419429 542.061714-87.917715 601.965714-54.198857 88.795429-172.763429 152.137143-348.891428 190.610286h-14.043429c-177.005714-38.4-295.716571-101.668571-349.988571-190.683429-36.571429-59.830857-64.365714-256-87.917715-601.819428a40.228571 40.228571 0 0 1 36.132572-42.788572z" p-id="12015"></path>
    <path d="M453.485714 453.485714h117.028572v-36.571428a58.514286 58.514286 0 1 0-117.028572 0v36.571428z m-51.2 0v-36.571428a109.714286 109.714286 0 0 1 219.428572 0v36.571428a73.142857 73.142857 0 0 1 73.142857 73.142857V658.285714a73.142857 73.142857 0 0 1-73.142857 73.142857h-219.428572a73.142857 73.142857 0 0 1-73.142857-73.142857V526.628571a73.142857 73.142857 0 0 1 73.142857-73.142857z m0 51.2a21.942857 21.942857 0 0 0-21.942857 21.942857V658.285714a21.942857 21.942857 0 0 0 21.942857 21.942857h219.428572a21.942857 21.942857 0 0 0 21.942857-21.942857V526.628571a21.942857 21.942857 0 0 0-21.942857-21.942857h-219.428572z" p-id="12016"></path>
    <path d="M515.657143 526.628571c8.265143 0 15.140571 2.852571 20.772571 8.484572a28.306286 28.306286 0 0 1 8.484572 20.772571 27.574857 27.574857 0 0 1-4.096 14.848 29.549714 29.549714 0 0 1-10.532572 10.24V629.028571c0 3.949714-1.462857 7.387429-4.388571 10.24a14.043429 14.043429 0 0 1-10.24 4.388572 14.043429 14.043429 0 0 1-10.24-4.388572 14.043429 14.043429 0 0 1-4.388572-10.24v-47.981714a29.549714 29.549714 0 0 1-10.532571-10.24 27.574857 27.574857 0 0 1-4.096-14.921143c0-8.265143 2.852571-15.140571 8.484571-20.772571A28.306286 28.306286 0 0 1 515.657143 526.628571z" p-id="12017"></path>
</svg>